<svg xmlns="http://www.w3.org/2000/svg" width="68.896" height="45.644" viewBox="0 0 68.896 45.644">
  <g id="thumb_down" transform="translate(-1617.316 -1069.686)">
    <g id="Rectangle_38" data-name="Rectangle 38" transform="translate(1617.316 1069.686)" fill="#fff" stroke="#707070" stroke-width="1">
      <rect width="68.896" height="45.644" rx="10" stroke="none"/>
      <rect x="0.5" y="0.5" width="67.896" height="44.644" rx="9.5" fill="none"/>
    </g>
    <g id="thumbs-up" transform="translate(1636.576 1076.145)">
      <path id="Path_34" data-name="Path 34" d="M19.266,14.727A5.8,5.8,0,0,0,18.283,18a5.207,5.207,0,0,0,5.136,5.117H26.95a8.809,8.809,0,0,0-.963,3.852,8.325,8.325,0,0,0,.7,3.732,4.41,4.41,0,0,0,2.047,2.037,6.853,6.853,0,0,0,3.03.652,2.545,2.545,0,0,0,1.806-.743,4.824,4.824,0,0,0,1.244-2.167q.381-1.324.612-2.538a3.405,3.405,0,0,1,.712-1.715q.983-1.063,2.147-2.568a17.746,17.746,0,0,1,2.749-3.11h5.5A2.569,2.569,0,0,0,49.1,17.977V5.137a2.474,2.474,0,0,0-.752-1.816,2.475,2.475,0,0,0-1.816-.753H40.754a14.837,14.837,0,0,1-2.769-.8Q35.517.9,33.642.452A16.19,16.19,0,0,0,29.839,0H27.251A6.4,6.4,0,0,0,22.7,1.616a5.682,5.682,0,0,0-1.706,4.4,5.647,5.647,0,0,0-1.2,3.571,6.069,6.069,0,0,0,.06.863,5.762,5.762,0,0,0-.763,2.889A5.239,5.239,0,0,0,19.266,14.727ZM44.345,5.518a1.277,1.277,0,1,1,1.806,1.806,1.277,1.277,0,1,1-1.806-1.806ZM21.282,16.351q.431-.923,1.073-.943a2.71,2.71,0,0,1-.5-.953,3.608,3.608,0,0,1-.2-1.114,3.171,3.171,0,0,1,1.063-2.387,2.774,2.774,0,0,1-.361-1.384A3.379,3.379,0,0,1,22.706,8.1a2.237,2.237,0,0,1,.953-1.053,6.861,6.861,0,0,1-.1-1.124q0-3.35,3.853-3.35h2.427A22.166,22.166,0,0,1,36.7,4.034q.1.04.582.211l.712.251q.231.081.7.231t.762.221q.291.07.662.13a4.044,4.044,0,0,0,.632.06H41.4v12.84h-.642a1.725,1.725,0,0,0-.712.18,3.391,3.391,0,0,0-.8.542q-.411.361-.772.712a11.414,11.414,0,0,0-.8.883q-.441.532-.692.853t-.632.823q-.381.5-.461.6-1.1,1.364-1.545,1.826a5.1,5.1,0,0,0-1.194,2.2q-.372,1.334-.612,2.518a3.32,3.32,0,0,1-.763,1.706,2.919,2.919,0,0,1-2.568-.943,5.24,5.24,0,0,1-.642-2.909,8.2,8.2,0,0,1,.963-3.22,8.185,8.185,0,0,0,.963-3.2H23.419a2.472,2.472,0,0,1-1.786-.773,2.447,2.447,0,0,1-.783-1.8A3.943,3.943,0,0,1,21.282,16.351Z" transform="translate(-18.283)" fill="red"/>
    </g>
  </g>
</svg>
