<svg xmlns="http://www.w3.org/2000/svg" id="icon_user" width="20.81" height="27.36" viewBox="0 0 20.81 27.36"><path id="Path_21" fill="#fff" d="M110.043,13.381c3.042,0,5.508-3,5.508-6.69S114.742,0,110.043,0s-5.508,3-5.508,6.691S107,13.381,110.043,13.381Z" data-name="Path 21" transform="translate(-99.638)"/><path id="Path_22" fill="#fff" d="M41.9,300.488c0-.225,0-.064,0,0Z" data-name="Path 22" transform="translate(-41.895 -276.891)"/><path id="Path_23" fill="#fff" d="M308.085,301.691c0-.062,0-.428,0,0Z" data-name="Path 23" transform="translate(-287.276 -277.918)"/><path id="Path_24" fill="#fff" d="M62.7,187.172c-.1-6.437-.943-8.271-7.376-9.432a4.519,4.519,0,0,1-6.033,0c-6.363,1.148-7.255,2.955-7.372,9.223-.01.512-.014.539-.016.479,0,.111,0,.317,0,.676,0,0,1.532,3.088,10.4,3.088s10.4-3.088,10.4-3.088c0-.231,0-.391,0-.5A4.143,4.143,0,0,1,62.7,187.172Z" data-name="Path 24" transform="translate(-41.907 -163.846)"/></svg>